PathFileType	4	(x/y/z)	A01_PREF_T0017.trc
DataRate	CameraRate	NumFrames	NumMarkers	Units	OrigDataRate	OrigDataStartFrame	OrigNumFrames
240	240	10	48	mm	240	155	309
Frame#	Time	TOP_HEAD			R_AC			L_AC			R_ASIS			L_ASIS			R_PSIS			L_PSIS			SACRAL			L_IC			R_IC			L_GT			R_GT			R_LAT_KNEE			R_MED_KNEE			L_MED_KNEE			L_LAT_KNEE			R_TOE			L_TOE			R_1ST_MET			L_1ST_MET			L_5TH_MET			R_5TH_MET			R_LAT_ANK			R_MED_ANK			L_MED_ANK			L_LAT_ANK			L_HEEL_SUP			R_HEEL_SUP			L_HEEL_LAT			R_HEEL_LAT			L_HEEL_MED			R_HEEL_MED			R_LL_PROX_POST			R_LL_PROX_ANT			R_LL_DIST_ANT			R_LL_DIST_POST			R_THIGH_PROX_POST			R_THIGH_PROX_ANT			R_THIGH_DIST_ANT			R_THIGH_DIST_POST			L_PROS_PROX_ANT			L_PROS_PROX_POST			L_PROS_DIST_POST			L_PROS_DIST_ANT			L_THIGH_PROX_ANT			L_THIGH_PROX_POST			L_THIGH_DIST_POST			L_THIGH_DIST_ANT			
		X1	Y1	Z1	X2	Y2	Z2	X3	Y3	Z3	X4	Y4	Z4	X5	Y5	Z5	X6	Y6	Z6	X7	Y7	Z7	X8	Y8	Z8	X9	Y9	Z9	X10	Y10	Z10	X11	Y11	Z11	X12	Y12	Z12	X13	Y13	Z13	X14	Y14	Z14	X15	Y15	Z15	X16	Y16	Z16	X17	Y17	Z17	X18	Y18	Z18	X19	Y19	Z19	X20	Y20	Z20	X21	Y21	Z21	X22	Y22	Z22	X23	Y23	Z23	X24	Y24	Z24	X25	Y25	Z25	X26	Y26	Z26	X27	Y27	Z27	X28	Y28	Z28	X29	Y29	Z29	X30	Y30	Z30	X31	Y31	Z31	X32	Y32	Z32	X33	Y33	Z33	X34	Y34	Z34	X35	Y35	Z35	X36	Y36	Z36	X37	Y37	Z37	X38	Y38	Z38	X39	Y39	Z39	X40	Y40	Z40	X41	Y41	Z41	X42	Y42	Z42	X43	Y43	Z43	X44	Y44	Z44	X45	Y45	Z45	X46	Y46	Z46	X47	Y47	Z47	X48	Y48	Z48	

155	0.64375	290.83	1716.1	330.92	29.512	1533.4	534.15	62.089	1532.7	78.364	48.504	1060.1	503.45	27.027	995.26	149.95	-173.42	1065.6	395.3	-169.88	1078.8	262.62	-190.74	1044.5	327.49	11.417	1128.5	116.82	5.8374	1165.7	518.44	-55.644	929.71	115.44	-1.2669	948.45	549.08	122.07	559.13	477.86	140.58	566.83	345.2	-144.57	540.12	346.79	-156.84	546.17	189.65	509.76	216.36	392.24	-196.07	69.693	272.01	453.56	153.3	344.59	-280.82	59.289	323.81	-308.11	53.091	197.2	433.66	129.8	475.08	300.14	121.87	451.31	304.03	135.01	349.36	-370.15	161.82	299.99	-401.92	163.09	232.55	-507.81	134.76	271.29	234.78	43.2	390.2	-505.22	103.97	241.23	254.1	26.774	425.82	-496.12	102.42	304.46	259.74	25.274	365.55	106.62	357.29	479.81	174.05	378.27	500.86	208.23	312.17	484.74	157.67	291.23	471.3	2.3465	800.08	528.35	62.92	840.11	534.68	94.56	755.39	521.99	36.893	718.19	513.43	-152.23	452.72	206.96	-201.61	476.16	193.71	-234.8	423.31	204.34	-183.82	407	215.22	-32.04	777.84	157.07	-97.921	801.69	141.66	-105.85	727.1	154.09	-46.922	706.02	168.77
156	0.64793	296.62	1715.4	331.59	35.89	1532	535.3	67.774	1531.9	79.488	55.484	1059.1	503.72	33.034	994.26	150.22	-166.95	1064.5	396.22	-163.55	1077.7	263.5	-184.31	1043.3	328.41	17.344	1127.8	117.35	12.81	1164.4	519.11	-49.724	928.78	115.81	6.0604	947.47	549.43	129.8	558.6	477.77	147.44	566.1	345.2	-138.94	539.13	346.7	-151.13	545.26	189.59	514.9	211.98	389.24	-195.53	69.275	271.95	457.47	149.48	342.42	-280.24	59.615	323.8	-307.61	53.555	197.17	438.31	126.95	473.12	304.82	120.63	450.59	307.96	133.3	348.47	-368.45	163.09	299.89	-400.16	164.75	232.5	-506.38	137.41	271.24	237.64	43.223	390.22	-504.21	106.62	241.27	256.99	26.715	425.78	-495.06	105.02	304.42	261.99	24.704	365.46	113.45	357.01	480.47	181.27	377.65	500.65	214.83	311.31	484.31	163.99	290.62	471.55	9.8474	799.33	528.69	70.396	839.55	534.67	102.16	754.9	521.88	44.566	717.53	513.64	-147.49	451.77	206.92	-196.63	475.71	193.64	-230.36	423.21	204.29	-179.55	406.39	215.17	-26.252	776.83	157.35	-92.108	800.75	141.9	-100.16	726.15	154.29	-41.211	705	168.95
157	0.65211	302.42	1714.7	332.25	42.299	1530.5	536.48	73.447	1531.1	80.62	62.429	1058.2	504.02	39.108	993.26	150.54	-160.49	1063.3	397.08	-157.2	1076.5	264.32	-177.86	1042.2	329.28	23.347	1127	117.88	19.752	1163.1	519.81	-43.715	927.82	116.2	13.364	946.58	549.78	137.54	558.17	477.69	154.3	565.43	345.21	-133.09	538.11	346.6	-145.21	544.32	189.54	519.87	207.23	386.38	-194.96	68.834	271.89	461.14	145.4	340.38	-279.62	59.969	323.8	-307.07	54.067	197.13	442.62	123.9	471.28	309.19	119.38	449.92	311.62	131.6	347.63	-366.63	164.46	299.81	-398.28	166.53	232.47	-504.82	140.23	271.19	240.11	43.37	390.26	-503.09	109.43	241.31	259.44	26.755	425.77	-493.89	107.78	304.4	263.83	24.232	365.41	120.19	356.85	481.12	188.4	377.11	500.44	221.29	310.51	483.88	170.18	290.1	471.79	17.359	798.66	529.03	77.869	839.08	534.65	109.78	754.51	521.75	52.247	716.96	513.85	-142.56	450.81	206.87	-191.44	475.26	193.58	-225.73	423.11	204.25	-175.11	405.77	215.12	-20.349	775.82	157.64	-86.188	799.79	142.16	-94.336	725.16	154.51	-35.359	703.98	169.14
158	0.65629	308.25	1714.1	332.89	48.738	1529.1	537.69	79.109	1530.3	81.756	69.332	1057.4	504.34	45.248	992.28	150.9	-154.05	1062.2	397.89	-150.84	1075.4	265.08	-171.4	1041	330.08	29.425	1126.2	118.42	26.66	1161.8	520.55	-37.617	926.84	116.63	20.634	945.77	550.16	145.26	557.84	477.62	161.13	564.86	345.21	-126.99	537.06	346.5	-139.06	543.35	189.48	524.7	202.15	383.7	-194.37	68.369	271.84	464.58	141.12	338.47	-278.96	60.354	323.81	-306.49	54.632	197.1	446.6	120.67	469.55	313.26	118.15	449.3	315.06	129.92	346.84	-364.68	165.94	299.73	-396.28	168.41	232.44	-503.12	143.22	271.17	242.24	43.64	390.33	-501.86	112.43	241.36	261.51	26.894	425.78	-492.62	110.73	304.38	265.29	23.87	365.39	126.84	356.82	481.76	195.44	376.65	500.23	227.63	309.78	483.46	176.22	289.69	472.04	24.865	798.09	529.38	85.325	838.71	534.61	117.37	754.2	521.61	59.914	716.47	514.07	-137.43	449.83	206.83	-186.05	474.81	193.52	-220.91	423.04	204.2	-170.49	405.16	215.08	-14.328	774.81	157.94	-80.158	798.81	142.43	-88.388	724.14	154.75	-29.359	702.97	169.34
159	0.66047	314.11	1713.4	333.52	55.204	1527.6	538.93	84.764	1529.5	82.891	76.183	1056.8	504.69	51.45	991.31	151.3	-147.63	1061.2	398.64	-144.47	1074.2	265.77	-164.95	1039.8	330.83	35.578	1125.4	118.98	33.531	1160.5	521.33	-31.432	925.85	117.08	27.86	945.07	550.55	152.95	557.62	477.56	167.92	564.38	345.21	-120.66	535.98	346.4	-132.67	542.37	189.43	529.37	196.82	381.23	-193.76	67.878	271.79	467.83	136.7	336.74	-278.26	60.772	323.83	-305.87	55.254	197.08	450.27	117.3	467.97	317.05	116.95	448.73	318.29	128.29	346.13	-362.61	167.52	299.66	-394.13	170.41	232.43	-501.26	146.4	271.16	244.09	44.029	390.4	-500.5	115.62	241.42	263.25	27.127	425.8	-491.22	113.86	304.39	266.45	23.625	365.39	133.4	356.92	482.39	202.38	376.3	500.03	233.83	309.15	483.05	182.14	289.38	472.28	32.348	797.62	529.74	92.748	838.43	534.56	124.94	754	521.47	67.546	716.09	514.3	-132.1	448.85	206.79	-180.44	474.35	193.46	-215.88	422.99	204.16	-165.67	404.55	215.04	-8.1878	773.82	158.27	-74.018	797.81	142.72	-82.308	723.11	155.01	-23.209	701.95	169.56
160	0.66465	320.01	1712.8	334.13	61.695	1526.1	540.19	90.413	1528.7	84.022	82.971	1056.2	505.07	57.712	990.36	151.74	-141.24	1060.1	399.33	-138.1	1073	266.39	-158.49	1038.7	331.52	41.805	1124.5	119.54	40.362	1159.2	522.14	-25.16	924.86	117.56	35.03	944.49	550.95	160.6	557.52	477.52	174.64	564.01	345.19	-114.07	534.88	346.31	-126.05	541.36	189.37	533.89	191.32	379.01	-193.11	67.361	271.74	470.89	132.2	335.18	-277.5	61.227	323.85	-305.2	55.94	197.05	453.65	113.84	466.55	320.57	115.79	448.23	321.33	126.75	345.48	-360.38	169.24	299.61	-391.83	172.53	232.44	-499.23	149.78	271.17	245.69	44.527	390.48	-499	119.02	241.48	264.7	27.445	425.83	-489.68	117.2	304.41	267.35	23.5	365.41	139.87	357.15	482.98	209.2	376.04	499.84	239.9	308.6	482.66	187.92	289.2	472.51	39.794	797.26	530.11	100.12	838.25	534.51	132.45	753.89	521.34	75.124	715.81	514.54	-126.56	447.86	206.75	-174.61	473.91	193.4	-210.64	422.96	204.12	-160.65	403.95	215.01	-1.9245	772.85	158.61	-67.763	796.81	143.03	-76.091	722.05	155.29	-16.904	700.95	169.78
161	0.66883	325.94	1712.3	334.74	68.207	1524.6	541.48	96.06	1528	85.145	89.687	1055.8	505.47	64.03	989.44	152.22	-134.89	1059.2	399.95	-131.73	1071.9	266.93	-152.03	1037.5	332.15	48.104	1123.7	120.1	47.149	1157.9	522.99	-18.803	923.86	118.07	42.134	944.03	551.38	168.21	557.53	477.5	181.28	563.76	345.17	-107.22	533.75	346.21	-119.18	540.34	189.32	538.24	185.69	377.06	-192.43	66.815	271.71	473.78	127.68	333.82	-276.7	61.721	323.89	-304.48	56.696	197.03	456.75	110.31	465.31	323.85	114.69	447.79	324.2	125.29	344.92	-358	171.08	299.58	-389.36	174.79	232.45	-497.01	153.36	271.2	247.09	45.126	390.57	-497.34	122.63	241.55	265.91	27.84	425.88	-488	120.75	304.45	268.06	23.495	365.44	146.23	357.52	483.55	215.9	375.89	499.67	245.83	308.16	482.3	193.57	289.14	472.73	47.187	797.02	530.49	107.44	838.18	534.47	139.89	753.89	521.21	82.63	715.63	514.79	-120.8	446.87	206.7	-168.54	473.47	193.35	-205.18	422.97	204.08	-155.43	403.37	214.98	4.4642	771.9	158.98	-61.393	795.8	143.36	-69.733	720.98	155.59	-10.439	699.97	170.03
162	0.67301	331.92	1711.7	335.32	74.737	1523.1	542.78	101.71	1527.3	86.256	96.321	1055.5	505.89	70.399	988.56	152.75	-128.57	1058.3	400.51	-125.36	1070.7	267.41	-145.59	1036.5	332.71	54.473	1122.9	120.68	53.888	1156.6	523.88	-12.364	922.86	118.6	49.16	943.72	551.83	175.78	557.67	477.5	187.85	563.64	345.16	-100.1	532.6	346.13	-112.05	539.3	189.27	542.43	180.02	375.39	-191.73	66.241	271.68	476.51	123.2	332.66	-275.83	62.258	323.94	-303.71	57.53	197.02	459.59	106.76	464.24	326.9	113.64	447.43	326.92	123.94	344.44	-355.45	173.06	299.56	-386.72	177.18	232.49	-494.58	157.16	271.26	248.33	45.811	390.66	-495.5	126.47	241.63	266.91	28.3	425.93	-486.15	124.52	304.52	268.6	23.606	365.49	152.49	358.01	484.07	222.45	375.83	499.52	251.62	307.82	481.99	199.09	289.19	472.95	54.513	796.9	530.88	114.67	838.22	534.44	147.25	753.99	521.1	90.053	715.58	515.05	-114.82	445.89	206.66	-162.23	473.04	193.3	-199.49	423	204.05	-149.98	402.8	214.95	10.981	770.99	159.37	-54.903	794.79	143.71	-63.228	719.91	155.92	-3.8118	699.02	170.29
163	0.67719	337.95	1711.2	335.9	81.283	1521.7	544.09	107.36	1526.7	87.351	102.87	1055.4	506.33	76.815	987.73	153.32	-122.29	1057.5	401	-118.99	1069.6	267.81	-139.17	1035.4	333.21	60.906	1122	121.28	60.576	1155.4	524.8	-5.8437	921.88	119.17	56.097	943.56	552.3	183.29	557.93	477.54	194.34	563.67	345.15	-92.717	531.44	346.04	-104.67	538.26	189.22	546.42	174.36	374.01	-190.99	65.64	271.67	479.07	118.8	331.7	-274.91	62.838	323.99	-302.87	58.447	197.02	462.19	103.21	463.37	329.73	112.66	447.15	329.5	122.71	344.06	-352.72	175.18	299.56	-383.89	179.7	232.54	-491.94	161.19	271.34	249.44	46.569	390.75	-493.48	130.55	241.73	267.75	28.813	425.99	-484.13	128.52	304.62	269.02	23.823	365.55	158.62	358.63	484.56	228.87	375.87	499.4	257.25	307.56	481.74	204.46	289.37	473.16	61.763	796.9	531.3	121.82	838.37	534.44	154.52	754.21	521.02	97.381	715.64	515.34	-108.6	444.91	206.62	-155.68	472.63	193.26	-193.57	423.08	204.02	-144.32	402.26	214.93	17.629	770.12	159.79	-48.292	793.79	144.08	-56.573	718.84	156.27	2.9823	698.09	170.57
164	0.68137	344.02	1710.8	336.47	87.841	1520.3	545.41	113.03	1526.1	88.428	109.31	1055.4	506.79	83.272	986.95	153.94	-116.05	1056.9	401.42	-112.63	1068.6	268.13	-132.76	1034.5	333.65	67.401	1121.2	121.88	67.206	1154.3	525.74	0.75383	920.91	119.75	62.934	943.55	552.78	190.74	558.31	477.61	200.77	563.85	345.16	-85.06	530.25	345.96	-97.04	537.21	189.17	550.21	168.76	372.91	-190.21	65.011	271.66	481.48	114.54	330.95	-273.92	63.468	324.06	-301.97	59.456	197.03	464.55	99.684	462.68	332.34	111.74	446.94	331.95	121.59	343.77	-349.8	177.44	299.59	-380.87	182.38	232.62	-489.07	165.44	271.46	250.44	47.383	390.85	-491.25	134.87	241.84	268.45	29.366	426.06	-481.92	132.75	304.75	269.36	24.139	365.61	164.64	359.36	485	235.12	375.98	499.33	262.72	307.4	481.55	209.7	289.65	473.37	68.925	797.03	531.74	128.87	838.64	534.47	161.69	754.54	520.97	104.61	715.82	515.64	-102.16	443.95	206.58	-148.88	472.24	193.21	-187.41	423.19	204	-138.44	401.74	214.91	24.41	769.29	160.23	-41.556	792.8	144.47	-49.761	717.77	156.64	9.9456	697.21	170.87
